# xmcd CD database file
#
# Track frame offsets:
#	150
#	18997
#	46515
#	72917
#	96457
#	118270
#	124445
#	141597
#	165677
#	194887
#
# Disc length: 2964 seconds
#
# Revision: 0
# Processed by: cddbd v1.5.1PL0 Copyright (c) Steve Scherf et al.
# Submitted via: CDex 1.51
#
DISCID=9c0b920a
DTITLE=沖野俊太郎 - hold still-keep going
DYEAR=1995
DGENRE=Rock
TTITLE0=Funky Planet
TTITLE1=The Spiritual Rising
TTITLE2=Human Universe
TTITLE3=太陽に追されて
TTITLE4=Let's Stay Together
TTITLE5=I am One Of The God's Mistake
TTITLE6=Get Yourself
TTITLE7=Life Goes On
TTITLE8=Feelin' Alright
TTITLE9=Good Times And Bad Times
EXTD=YEAR: 1995
EXTT0=
EXTT1=
EXTT2=
EXTT3=
EXTT4=
EXTT5=
EXTT6=
EXTT7=
EXTT8=
EXTT9=
PLAYORDER=
